<svg xmlns="http://www.w3.org/2000/svg" width="500px" height="500px" viewBox="-10 -10 20 20"><defs><marker id="arrowheadX" markerWidth="0.3" markerHeight="0.3" refX="0.15" refY="0.15" orient="auto" markerUnits="userSpaceOnUse"><polygon points="0 0, 0.3 0.15, 0 0.3" fill="black"></polygon></marker><marker id="arrowheadY" markerWidth="0.3" markerHeight="0.3" refX="0.1" refY="0.15" orient="auto" markerUnits="userSpaceOnUse"><polygon points="0 0, 0.3 0.15, 0 0.3" fill="black"></polygon></marker><pattern id="smallGrid" width="1" height="1" patternUnits="userSpaceOnUse"><path d="M 1 0 L 0 0 0 1" fill="none" stroke="#ccc" stroke-width="0.05"></path></pattern><pattern id="grid" width="1" height="1" patternUnits="userSpaceOnUse"><rect width="1" height="1" fill="url(#smallGrid)"></rect><path d="M 1 0 L 0 0 0 1" fill="none" stroke="#D5E9FF" stroke-width="0.1"></path></pattern></defs><rect x="-10" y="-10" width="20" height="20" fill="url(#grid)"></rect><line x1="-10" y1="0" x2="9.5" y2="0" stroke="black" stroke-width="0.049" marker-end="url(#arrowheadX)"></line><line x1="0" y1="10" x2="0" y2="-9.5" stroke="black" stroke-width="0.049" marker-end="url(#arrowheadY)"></line><text x="9.5" y="0.8" text-anchor="end" fill="black" font-size="0.8" font-family="Times New Roman">x</text><text x="0.5" y="-9.5" text-anchor="start" fill="black" font-size="0.8" font-family="Times New Roman">y</text><text x="0.2" y="0.8" text-anchor="start" fill="black" font-size="0.6" font-family="Times New Roman">(0,0)</text><circle cx="-3" cy="-4" r="0.2" fill="black"></circle><text x="-2.75" y="-3.6" font-size="0.8px" fill="#333" font-family="Times New Roman">A</text><circle cx="4" cy="-2" r="0.2" fill="black"></circle><text x="4.25" y="-1.6" font-size="0.8px" fill="#333" font-family="Times New Roman">N</text><circle cx="-5" cy="1" r="0.2" fill="black"></circle><text x="-4.75" y="1.4" font-size="0.8px" fill="#333" font-family="Times New Roman">B</text><circle cx="-5" cy="5" r="0.2" fill="black"></circle><text x="-4.75" y="5.4" font-size="0.8px" fill="#333" font-family="Times New Roman">G</text><circle cx="3" cy="5" r="0.2" fill="black"></circle><text x="3.25" y="5.4" font-size="0.8px" fill="#333" font-family="Times New Roman">P</text></svg>