<svg width="1020" height="859" xmlns="http://www.w3.org/2000/svg" xmlns:xlink="http://www.w3.org/1999/xlink" xml:space="preserve" overflow="hidden"><g transform="translate(-172 -347)"><path d="M0 0 936.007 0.000360892" stroke="#DAE3F3" stroke-width="4.58333" stroke-miterlimit="8" fill="none" fill-rule="evenodd" transform="matrix(1 0 0 -1 212.5 907.5)"></path><path d="M210.5 1131.5 1148.64 1131.5" stroke="#DAE3F3" stroke-width="4.58333" stroke-miterlimit="8" fill="none" fill-rule="evenodd"></path><path d="M239.5 357.5 239.5 1187.21" stroke="#DAE3F3" stroke-width="4.58333" stroke-miterlimit="8" fill="none" fill-rule="evenodd"></path><path d="M316.5 365.5 316.5 1195.21" stroke="#DAE3F3" stroke-width="4.58333" stroke-miterlimit="8" fill="none" fill-rule="evenodd"></path><path d="M393.5 359.5 393.5 1189.21" stroke="#DAE3F3" stroke-width="4.58333" stroke-miterlimit="8" fill="none" fill-rule="evenodd"></path><path d="M469.5 369.5 469.5 1199.21" stroke="#DAE3F3" stroke-width="4.58333" stroke-miterlimit="8" fill="none" fill-rule="evenodd"></path><path d="M546.5 357.5 546.5 1187.21" stroke="#DAE3F3" stroke-width="4.58333" stroke-miterlimit="8" fill="none" fill-rule="evenodd"></path><path d="M623.5 369.5 623.5 1199.21" stroke="#DAE3F3" stroke-width="4.58333" stroke-miterlimit="8" fill="none" fill-rule="evenodd"></path><path d="M700.5 363.5 700.5 1193.21" stroke="#DAE3F3" stroke-width="4.58333" stroke-miterlimit="8" fill="none" fill-rule="evenodd"></path><path d="M777.5 373.5 777.5 1203.21" stroke="#DAE3F3" stroke-width="4.58333" stroke-miterlimit="8" fill="none" fill-rule="evenodd"></path><path d="M854.5 363.5 854.5 1193.21" stroke="#DAE3F3" stroke-width="4.58333" stroke-miterlimit="8" fill="none" fill-rule="evenodd"></path><path d="M931.5 359.5 931.5 1189.21" stroke="#DAE3F3" stroke-width="4.58333" stroke-miterlimit="8" fill="none" fill-rule="evenodd"></path><path d="M1008.5 353.5 1008.5 1183.21" stroke="#DAE3F3" stroke-width="4.58333" stroke-miterlimit="8" fill="none" fill-rule="evenodd"></path><path d="M0 0 946.128 0.000360892" stroke="#DAE3F3" stroke-width="4.58333" stroke-miterlimit="8" fill="none" fill-rule="evenodd" transform="matrix(1 0 0 -1 202.5 446.5)"></path><path d="M0 0 938.034 0.000360892" stroke="#DAE3F3" stroke-width="4.58333" stroke-miterlimit="8" fill="none" fill-rule="evenodd" transform="matrix(1 0 0 -1 210.5 523.5)"></path><path d="M0 0 948.151 0.000360892" stroke="#DAE3F3" stroke-width="4.58333" stroke-miterlimit="8" fill="none" fill-rule="evenodd" transform="matrix(1 0 0 -1 200.5 599.5)"></path><path d="M0 0 946.127 0.000360892" stroke="#DAE3F3" stroke-width="4.58333" stroke-miterlimit="8" fill="none" fill-rule="evenodd" transform="matrix(1 0 0 -1 202.5 678.5)"></path><path d="M0 0 946.127 0.000360892" stroke="#DAE3F3" stroke-width="4.58333" stroke-miterlimit="8" fill="none" fill-rule="evenodd" transform="matrix(1 0 0 -1 202.5 755.5)"></path><path d="M0 0 936.01 0.000360892" stroke="#DAE3F3" stroke-width="4.58333" stroke-miterlimit="8" fill="none" fill-rule="evenodd" transform="matrix(1 0 0 -1 212.5 831.5)"></path><path d="M0 0 919.823 0.000360892" stroke="#DAE3F3" stroke-width="4.58333" stroke-miterlimit="8" fill="none" fill-rule="evenodd" transform="matrix(1 0 0 -1 228.5 984.5)"></path><path d="M0 0 946.127 0.000360892" stroke="#DAE3F3" stroke-width="4.58333" stroke-miterlimit="8" fill="none" fill-rule="evenodd" transform="matrix(1 0 0 -1 202.5 1061.5)"></path><path d="M1.14583-5.87326e-07 1.14619 694.91-1.14548 694.91-1.14583 5.87326e-07ZM0.000356194 694.91 9.16702 685.743 0.000360892 704.076-9.16632 685.743Z" transform="matrix(1 0 0 -1 546 1131.08)"></path><text font-family="Times New Roman,Times New Roman_MSFontService,sans-serif" font-style="italic" font-weight="400" font-size="46" transform="matrix(1 0 0 1 1081.56 877)">x</text><text font-family="Times New Roman,Times New Roman_MSFontService,sans-serif" font-style="italic" font-weight="400" font-size="46" transform="matrix(1 0 0 1 571.13 438)">y</text><path d="M241 828.854 1081.69 828.855 1081.69 831.146 241 831.146ZM1081.69 830.001 1072.52 820.834 1090.86 830.001 1072.52 839.167Z"></path><path d="M1078.5 350.5 1078.5 1180.21" stroke="#DAE3F3" stroke-width="4.58333" stroke-miterlimit="8" fill="none" fill-rule="evenodd"></path><path d="M1148.5 347.5 1148.5 1177.21" stroke="#DAE3F3" stroke-width="4.58333" stroke-miterlimit="8" fill="none" fill-rule="evenodd"></path><path d="M996.797 519.5 633.5 519.5" stroke="#000000" stroke-width="4.58333" stroke-miterlimit="8" fill="none" fill-rule="evenodd"></path><path d="M0 0 0.000360892 402.389" stroke="#000000" stroke-width="4.58333" stroke-miterlimit="8" fill="none" fill-rule="evenodd" transform="matrix(-1 0 0 1 391.5 582.5)"></path><path d="M383 978C383 973.029 387.253 969 392.5 969 397.747 969 402 973.029 402 978 402 982.971 397.747 987 392.5 987 387.253 987 383 982.971 383 978Z" fill="#C00000" fill-rule="evenodd"></path><path d="M615 519C615 514.03 619.029 510 624 510 628.97 510 633 514.03 633 519 633 523.971 628.97 528 624 528 619.029 528 615 523.971 615 519Z" fill="#C00000" fill-rule="evenodd"></path><path d="M381 595C381 590.03 385.029 586 390 586 394.971 586 399 590.03 399 595 399 599.971 394.971 604 390 604 385.029 604 381 599.971 381 595Z" fill="#C00000" fill-rule="evenodd"></path><text font-family="Times New Roman,Times New Roman_MSFontService,sans-serif" font-weight="400" font-size="46" transform="matrix(1 0 0 1 410.998 610)">C</text><path d="M769 517.5C769 512.253 773.029 508 778 508 782.97 508 787 512.253 787 517.5 787 522.747 782.97 527 778 527 773.029 527 769 522.747 769 517.5Z" fill="#C00000" fill-rule="evenodd"></path><text font-family="Times New Roman,Times New Roman_MSFontService,sans-serif" font-weight="400" font-size="46" transform="matrix(1 0 0 1 994.272 583)">B</text><text font-family="Times New Roman,Times New Roman_MSFontService,sans-serif" font-weight="400" font-size="46" transform="matrix(1 0 0 1 416.364 992)">D</text><path d="M916 517.5C916 512.253 920.03 508 925 508 929.971 508 934 512.253 934 517.5 934 522.747 929.971 527 925 527 920.03 527 916 522.747 916 517.5Z" fill="#C00000" fill-rule="evenodd"></path><text fill="#C00000" font-family="Heebo,Heebo_MSFontService,sans-serif" font-weight="700" font-size="41" direction="rtl" writing-mode="rl-tb" transform="matrix(1 0 0 1 1050.39 423)" x="93.2479">רביע </text><text fill="#C00000" font-family="Heebo,Heebo_MSFontService,sans-serif" font-weight="700" font-size="41" transform="matrix(1 0 0 1 1026.69 423)">1</text><text fill="#C00000" font-family="Heebo,Heebo_MSFontService,sans-serif" font-weight="700" font-size="41" direction="rtl" writing-mode="rl-tb" transform="matrix(1 0 0 1 286.69 424)" x="93.2479">רביע </text><text fill="#C00000" font-family="Heebo,Heebo_MSFontService,sans-serif" font-weight="700" font-size="41" transform="matrix(1 0 0 1 262.994 424)">2</text><text fill="#C00000" font-family="Heebo,Heebo_MSFontService,sans-serif" font-weight="700" font-size="41" direction="rtl" writing-mode="rl-tb" transform="matrix(1 0 0 1 276.627 1130)" x="93.2479">רביע </text><text fill="#C00000" font-family="Heebo,Heebo_MSFontService,sans-serif" font-weight="700" font-size="41" transform="matrix(1 0 0 1 252.931 1130)">3</text><text fill="#C00000" font-family="Heebo,Heebo_MSFontService,sans-serif" font-weight="700" font-size="41" direction="rtl" writing-mode="rl-tb" transform="matrix(1 0 0 1 1066.44 1151)" x="93.2479">רביע </text><text fill="#C00000" font-family="Heebo,Heebo_MSFontService,sans-serif" font-weight="700" font-size="41" transform="matrix(1 0 0 1 1042.74 1151)">4</text><path d="M384 669C384 664.029 388.253 660 393.5 660 398.747 660 403 664.029 403 669 403 673.97 398.747 678 393.5 678 388.253 678 384 673.97 384 669Z" fill="#C00000" fill-rule="evenodd"></path><path d="M383 824.5C383 819.253 387.253 815 392.5 815 397.747 815 402 819.253 402 824.5 402 829.747 397.747 834 392.5 834 387.253 834 383 829.747 383 824.5Z" fill="#C00000" fill-rule="evenodd"></path><path d="M994 519C994 514.03 998.03 510 1003 510 1007.97 510 1012 514.03 1012 519 1012 523.971 1007.97 528 1003 528 998.03 528 994 523.971 994 519Z" fill="#C00000" fill-rule="evenodd"></path><text font-family="Times New Roman,Times New Roman_MSFontService,sans-serif" font-weight="400" font-size="46" transform="matrix(1 0 0 1 606.772 576)">A</text></g></svg>