<svg width="1020" height="858" xmlns="http://www.w3.org/2000/svg" xmlns:xlink="http://www.w3.org/1999/xlink" xml:space="preserve" overflow="hidden"><g transform="translate(-143 -1579)"><path d="M0 0 936.007 0.000360892" stroke="#DAE3F3" stroke-width="4.58333" stroke-miterlimit="8" fill="none" fill-rule="evenodd" transform="matrix(1 0 0 -1 183.5 2138.5)"></path><path d="M181.5 2363.5 1119.64 2363.5" stroke="#DAE3F3" stroke-width="4.58333" stroke-miterlimit="8" fill="none" fill-rule="evenodd"></path><path d="M210.5 1588.5 210.5 2418.21" stroke="#DAE3F3" stroke-width="4.58333" stroke-miterlimit="8" fill="none" fill-rule="evenodd"></path><path d="M287.5 1596.5 287.5 2426.21" stroke="#DAE3F3" stroke-width="4.58333" stroke-miterlimit="8" fill="none" fill-rule="evenodd"></path><path d="M363.5 1590.5 363.5 2420.21" stroke="#DAE3F3" stroke-width="4.58333" stroke-miterlimit="8" fill="none" fill-rule="evenodd"></path><path d="M440.5 1600.5 440.5 2430.21" stroke="#DAE3F3" stroke-width="4.58333" stroke-miterlimit="8" fill="none" fill-rule="evenodd"></path><path d="M517.5 1588.5 517.5 2418.21" stroke="#DAE3F3" stroke-width="4.58333" stroke-miterlimit="8" fill="none" fill-rule="evenodd"></path><path d="M594.5 1600.5 594.5 2430.21" stroke="#DAE3F3" stroke-width="4.58333" stroke-miterlimit="8" fill="none" fill-rule="evenodd"></path><path d="M671.5 1594.5 671.5 2424.21" stroke="#DAE3F3" stroke-width="4.58333" stroke-miterlimit="8" fill="none" fill-rule="evenodd"></path><path d="M748.5 1604.5 748.5 2434.21" stroke="#DAE3F3" stroke-width="4.58333" stroke-miterlimit="8" fill="none" fill-rule="evenodd"></path><path d="M825.5 1594.5 825.5 2424.21" stroke="#DAE3F3" stroke-width="4.58333" stroke-miterlimit="8" fill="none" fill-rule="evenodd"></path><path d="M902.5 1590.5 902.5 2420.21" stroke="#DAE3F3" stroke-width="4.58333" stroke-miterlimit="8" fill="none" fill-rule="evenodd"></path><path d="M979.5 1584.5 979.5 2414.21" stroke="#DAE3F3" stroke-width="4.58333" stroke-miterlimit="8" fill="none" fill-rule="evenodd"></path><path d="M0 0 946.128 0.000360892" stroke="#DAE3F3" stroke-width="4.58333" stroke-miterlimit="8" fill="none" fill-rule="evenodd" transform="matrix(1 0 0 -1 173.5 1678.5)"></path><path d="M0 0 938.034 0.000360892" stroke="#DAE3F3" stroke-width="4.58333" stroke-miterlimit="8" fill="none" fill-rule="evenodd" transform="matrix(1 0 0 -1 181.5 1754.5)"></path><path d="M0 0 948.151 0.000360892" stroke="#DAE3F3" stroke-width="4.58333" stroke-miterlimit="8" fill="none" fill-rule="evenodd" transform="matrix(1 0 0 -1 171.5 1831.5)"></path><path d="M0 0 946.127 0.000360892" stroke="#DAE3F3" stroke-width="4.58333" stroke-miterlimit="8" fill="none" fill-rule="evenodd" transform="matrix(1 0 0 -1 173.5 1909.5)"></path><path d="M0 0 946.127 0.000360892" stroke="#DAE3F3" stroke-width="4.58333" stroke-miterlimit="8" fill="none" fill-rule="evenodd" transform="matrix(1 0 0 -1 173.5 1986.5)"></path><path d="M0 0 936.01 0.000360892" stroke="#DAE3F3" stroke-width="4.58333" stroke-miterlimit="8" fill="none" fill-rule="evenodd" transform="matrix(1 0 0 -1 183.5 2063.5)"></path><path d="M0 0 919.823 0.000360892" stroke="#DAE3F3" stroke-width="4.58333" stroke-miterlimit="8" fill="none" fill-rule="evenodd" transform="matrix(1 0 0 -1 199.5 2216.5)"></path><path d="M0 0 946.127 0.000360892" stroke="#DAE3F3" stroke-width="4.58333" stroke-miterlimit="8" fill="none" fill-rule="evenodd" transform="matrix(1 0 0 -1 173.5 2292.5)"></path><path d="M1.14583-5.87326e-07 1.14619 694.91-1.14548 694.91-1.14583 5.87326e-07ZM0.000356194 694.91 9.16702 685.743 0.000360892 704.076-9.16632 685.743Z" transform="matrix(1 0 0 -1 671 2360.08)"></path><text font-family="Times New Roman,Times New Roman_MSFontService,sans-serif" font-style="italic" font-weight="400" font-size="46" transform="matrix(1 0 0 1 1072.41 1958)">x</text><text font-family="Times New Roman,Times New Roman_MSFontService,sans-serif" font-style="italic" font-weight="400" font-size="46" transform="matrix(1 0 0 1 713.512 1653)">y</text><path d="M221 1912.85 1061.69 1912.85 1061.69 1915.15 221 1915.15ZM1061.69 1914 1052.52 1904.83 1070.86 1914 1052.52 1923.17Z"></path><path d="M1049.5 1581.5 1049.5 2411.21" stroke="#DAE3F3" stroke-width="4.58333" stroke-miterlimit="8" fill="none" fill-rule="evenodd"></path><path d="M1119.5 1579.5 1119.5 2409.21" stroke="#DAE3F3" stroke-width="4.58333" stroke-miterlimit="8" fill="none" fill-rule="evenodd"></path><path d="M355 2135C355 2130.03 359.253 2126 364.5 2126 369.747 2126 374 2130.03 374 2135 374 2139.97 369.747 2144 364.5 2144 359.253 2144 355 2139.97 355 2135Z" fill="#C00000" fill-rule="evenodd"></path><path d="M664 2289C664 2284.03 668.03 2280 673 2280 677.971 2280 682 2284.03 682 2289 682 2293.97 677.971 2298 673 2298 668.03 2298 664 2293.97 664 2289Z" fill="#C00000" fill-rule="evenodd"></path><text font-family="Times New Roman,Times New Roman_MSFontService,sans-serif" font-weight="400" font-size="46" transform="matrix(1 0 0 1 340.639 2206)">E(</text><text font-family="Times New Roman,Times New Roman_MSFontService,sans-serif" font-weight="400" font-size="46" transform="matrix(1 0 0 1 383.906 2206)">-</text><text font-family="Times New Roman,Times New Roman_MSFontService,sans-serif" font-weight="400" font-size="46" transform="matrix(1 0 0 1 399.168 2206)">4</text><text font-family="Times New Roman,Times New Roman_MSFontService,sans-serif" font-weight="400" font-size="46" transform="matrix(1 0 0 1 422.085 2206)">,__)</text><path d="M429 1751C429 1746.03 433.253 1742 438.5 1742 443.747 1742 448 1746.03 448 1751 448 1755.97 443.747 1760 438.5 1760 433.253 1760 429 1755.97 429 1751Z" fill="#C00000" fill-rule="evenodd"></path><text font-family="Times New Roman,Times New Roman_MSFontService,sans-serif" font-weight="400" font-size="46" transform="matrix(1 0 0 1 416.866 1714)">C(__,__)</text><path d="M740 1829C740 1824.03 744.03 1820 749 1820 753.971 1820 758 1824.03 758 1829 758 1833.97 753.971 1838 749 1838 744.03 1838 740 1833.97 740 1829Z" fill="#C00000" fill-rule="evenodd"></path><text font-family="Times New Roman,Times New Roman_MSFontService,sans-serif" font-weight="400" font-size="46" transform="matrix(1 0 0 1 760.6 1826)">B(__,__)</text><text font-family="Times New Roman,Times New Roman_MSFontService,sans-serif" font-weight="400" font-size="46" transform="matrix(1 0 0 1 692.124 2295)">D(___,</text><text font-family="Times New Roman,Times New Roman_MSFontService,sans-serif" font-weight="400" font-size="46" transform="matrix(1 0 0 1 820.687 2295)">-</text><text font-family="Times New Roman,Times New Roman_MSFontService,sans-serif" font-weight="400" font-size="46" transform="matrix(1 0 0 1 835.949 2295)">5</text><text font-family="Times New Roman,Times New Roman_MSFontService,sans-serif" font-weight="400" font-size="46" transform="matrix(1 0 0 1 858.866 2295)">)</text><path d="M814 2052C814 2047.03 818.029 2043 823 2043 827.97 2043 832 2047.03 832 2052 832 2056.97 827.97 2061 823 2061 818.029 2061 814 2056.97 814 2052Z" fill="#C00000" fill-rule="evenodd"></path><text font-family="Times New Roman,Times New Roman_MSFontService,sans-serif" font-weight="400" font-size="46" transform="matrix(1 0 0 1 839.3 2064)">A(</text><text font-family="Times New Roman,Times New Roman_MSFontService,sans-serif" font-weight="400" font-size="46" transform="matrix(1 0 0 1 887.655 2064)">2</text><text font-family="Times New Roman,Times New Roman_MSFontService,sans-serif" font-weight="400" font-size="46" transform="matrix(1 0 0 1 910.571 2064)">,</text><text font-family="Times New Roman,Times New Roman_MSFontService,sans-serif" font-weight="400" font-size="46" transform="matrix(1 0 0 1 922.03 2064)">-</text><text font-family="Times New Roman,Times New Roman_MSFontService,sans-serif" font-weight="400" font-size="46" transform="matrix(1 0 0 1 937.292 2064)">2</text><text font-family="Times New Roman,Times New Roman_MSFontService,sans-serif" font-weight="400" font-size="46" transform="matrix(1 0 0 1 960.209 2064)">)</text><text fill="#C00000" font-family="Heebo,Heebo_MSFontService,sans-serif" font-weight="700" font-size="41" direction="rtl" writing-mode="rl-tb" transform="matrix(1 0 0 1 1021.35 1655)" x="93.2479">רביע </text><text fill="#C00000" font-family="Heebo,Heebo_MSFontService,sans-serif" font-weight="700" font-size="41" transform="matrix(1 0 0 1 997.654 1655)">1</text><text fill="#C00000" font-family="Heebo,Heebo_MSFontService,sans-serif" font-weight="700" font-size="41" direction="rtl" writing-mode="rl-tb" transform="matrix(1 0 0 1 257.651 1655)" x="93.2479">רביע </text><text fill="#C00000" font-family="Heebo,Heebo_MSFontService,sans-serif" font-weight="700" font-size="41" transform="matrix(1 0 0 1 233.955 1655)">2</text><text fill="#C00000" font-family="Heebo,Heebo_MSFontService,sans-serif" font-weight="700" font-size="41" direction="rtl" writing-mode="rl-tb" transform="matrix(1 0 0 1 247.588 2361)" x="93.2479">רביע </text><text fill="#C00000" font-family="Heebo,Heebo_MSFontService,sans-serif" font-weight="700" font-size="41" transform="matrix(1 0 0 1 223.892 2361)">3</text><text fill="#C00000" font-family="Heebo,Heebo_MSFontService,sans-serif" font-weight="700" font-size="41" direction="rtl" writing-mode="rl-tb" transform="matrix(1 0 0 1 1037.4 2382)" x="93.2479">רביע </text><text fill="#C00000" font-family="Heebo,Heebo_MSFontService,sans-serif" font-weight="700" font-size="41" transform="matrix(1 0 0 1 1013.7 2382)">4</text></g></svg>