<svg width="845" height="698" xmlns="http://www.w3.org/2000/svg" xmlns:xlink="http://www.w3.org/1999/xlink" xml:space="preserve" overflow="hidden"><g transform="translate(-144 -1650)"><path d="M163.5 2102.5 965.224 2102.5" stroke="#DAE3F3" stroke-width="4.58333" stroke-miterlimit="8" fill="none" fill-rule="evenodd"></path><path d="M0 0 781.865 1.96289" stroke="#DAE3F3" stroke-width="4.58333" stroke-miterlimit="8" fill="none" fill-rule="evenodd" transform="matrix(1 0 0 -1 163.5 2286.46)"></path><path d="M252.5 1650.5 252.501 2332.1" stroke="#DAE3F3" stroke-width="4.58333" stroke-miterlimit="8" fill="none" fill-rule="evenodd"></path><path d="M315.5 1657.5 315.5 2339.1" stroke="#DAE3F3" stroke-width="4.58333" stroke-miterlimit="8" fill="none" fill-rule="evenodd"></path><path d="M378.5 1652.5 378.5 2334.1" stroke="#DAE3F3" stroke-width="4.58333" stroke-miterlimit="8" fill="none" fill-rule="evenodd"></path><path d="M441.5 1660.5 441.5 2342.1" stroke="#DAE3F3" stroke-width="4.58333" stroke-miterlimit="8" fill="none" fill-rule="evenodd"></path><path d="M504.5 1650.5 504.5 2332.1" stroke="#DAE3F3" stroke-width="4.58333" stroke-miterlimit="8" fill="none" fill-rule="evenodd"></path><path d="M567.5 1660.5 567.5 2342.1" stroke="#DAE3F3" stroke-width="4.58333" stroke-miterlimit="8" fill="none" fill-rule="evenodd"></path><path d="M630.5 1655.5 630.5 2337.1" stroke="#DAE3F3" stroke-width="4.58333" stroke-miterlimit="8" fill="none" fill-rule="evenodd"></path><path d="M693.5 1663.5 693.5 2345.1" stroke="#DAE3F3" stroke-width="4.58333" stroke-miterlimit="8" fill="none" fill-rule="evenodd"></path><path d="M756.5 1655.5 756.5 2337.1" stroke="#DAE3F3" stroke-width="4.58333" stroke-miterlimit="8" fill="none" fill-rule="evenodd"></path><path d="M819.5 1652.5 819.5 2334.1" stroke="#DAE3F3" stroke-width="4.58333" stroke-miterlimit="8" fill="none" fill-rule="evenodd"></path><path d="M883.5 1660.5 883.5 2328.86" stroke="#DAE3F3" stroke-width="4.58333" stroke-miterlimit="8" fill="none" fill-rule="evenodd"></path><path d="M162.5 1729.5 963.476 1729.5" stroke="#DAE3F3" stroke-width="4.58333" stroke-miterlimit="8" fill="none" fill-rule="evenodd"></path><path d="M144.5 1780.5 965.317 1791.5" stroke="#DAE3F3" stroke-width="4.58333" stroke-miterlimit="8" fill="none" fill-rule="evenodd"></path><path d="M144.5 1849.5 965.303 1849.5" stroke="#DAE3F3" stroke-width="4.58333" stroke-miterlimit="8" fill="none" fill-rule="evenodd"></path><path d="M144.5 1914.5 945.444 1914.5" stroke="#DAE3F3" stroke-width="4.58333" stroke-miterlimit="8" fill="none" fill-rule="evenodd"></path><path d="M163.5 1977.5 900.46 1977.5" stroke="#DAE3F3" stroke-width="4.58333" stroke-miterlimit="8" fill="none" fill-rule="evenodd"></path><path d="M144.5 2040.5 965.303 2040.5" stroke="#DAE3F3" stroke-width="4.58333" stroke-miterlimit="8" fill="none" fill-rule="evenodd"></path><path d="M163.5 2165.5 945.366 2165.5" stroke="#DAE3F3" stroke-width="4.58333" stroke-miterlimit="8" fill="none" fill-rule="evenodd"></path><path d="M163.5 2228.5 945.366 2228.5" stroke="#DAE3F3" stroke-width="4.58333" stroke-miterlimit="8" fill="none" fill-rule="evenodd"></path><path d="M1.14583-6.64819e-07 1.14619 612.841-1.14548 612.841-1.14583 6.64819e-07ZM0.000355574 612.841 9.16702 603.674 0.000360892 622.007-9.16632 603.674Z" transform="matrix(1 0 0 -1 630 2328.01)"></path><text font-family="Times New Roman,Times New Roman_MSFontService,sans-serif" font-style="italic" font-weight="400" font-size="46" transform="matrix(1 0 0 1 935.848 2025)">x</text><text font-family="Times New Roman,Times New Roman_MSFontService,sans-serif" font-style="italic" font-weight="400" font-size="46" transform="matrix(1 0 0 1 654.286 1712)">y</text><path d="M195 1977.85 928.455 1977.85 928.455 1980.15 195 1980.15ZM928.454 1979 919.288 1969.83 937.621 1979 919.288 1988.17Z"></path><path d="M190.5 1660.5 190.5 2342.1" stroke="#DAE3F3" stroke-width="4.58333" stroke-miterlimit="8" fill="none" fill-rule="evenodd"></path><path d="M945.5 1657.5 945.501 2325.86" stroke="#DAE3F3" stroke-width="4.58333" stroke-miterlimit="8" fill="none" fill-rule="evenodd"></path><path d="M184.5 1666.5 985.476 1666.5" stroke="#DAE3F3" stroke-width="4.58333" stroke-miterlimit="8" fill="none" fill-rule="evenodd"></path><path d="M309 2276.5C309 2272.36 312.358 2269 316.5 2269 320.642 2269 324 2272.36 324 2276.5 324 2280.64 320.642 2284 316.5 2284 312.358 2284 309 2280.64 309 2276.5Z" fill="#C00000" fill-rule="evenodd"></path><path d="M311 2032.5C311 2028.36 314.358 2025 318.5 2025 322.642 2025 326 2028.36 326 2032.5 326 2036.64 322.642 2040 318.5 2040 314.358 2040 311 2036.64 311 2032.5Z" fill="#C00000" fill-rule="evenodd"></path><text font-family="Times New Roman,Times New Roman_MSFontService,sans-serif" font-weight="400" font-size="46" transform="matrix(1 0 0 1 427.087 1774)">A</text><text font-family="Times New Roman,Times New Roman_MSFontService,sans-serif" font-weight="400" font-size="46" transform="matrix(1 0 0 1 276.176 2049)">B</text><path d="M434 1719.5C434 1715.36 437.358 1712 441.5 1712 445.642 1712 449 1715.36 449 1719.5 449 1723.64 445.642 1727 441.5 1727 437.358 1727 434 1723.64 434 1719.5Z" fill="#C00000" fill-rule="evenodd"></path><path d="M812 2280.5C812 2276.36 815.358 2273 819.5 2273 823.642 2273 827 2276.36 827 2280.5 827 2284.64 823.642 2288 819.5 2288 815.358 2288 812 2284.64 812 2280.5Z" fill="#C00000" fill-rule="evenodd"></path><path d="M877 1854.5C877 1850.36 880.358 1847 884.5 1847 888.642 1847 892 1850.36 892 1854.5 892 1858.64 888.642 1862 884.5 1862 880.358 1862 877 1858.64 877 1854.5Z" fill="#C00000" fill-rule="evenodd"></path><text font-family="Times New Roman,Times New Roman_MSFontService,sans-serif" font-weight="400" font-size="46" transform="matrix(1 0 0 1 340.705 2277)">G</text><text font-family="Times New Roman,Times New Roman_MSFontService,sans-serif" font-weight="400" font-size="46" transform="matrix(1 0 0 1 827.999 2258)">P</text><text font-family="Times New Roman,Times New Roman_MSFontService,sans-serif" font-weight="400" font-size="46" transform="matrix(1 0 0 1 874.485 1832)">N</text></g></svg>