<svg width="937" height="771" xmlns="http://www.w3.org/2000/svg" xmlns:xlink="http://www.w3.org/1999/xlink" xml:space="preserve" overflow="hidden"><g transform="translate(-172 -1344)"><path d="M193.5 1846.5 1105.78 1846.5" stroke="#DAE3F3" stroke-width="4.58333" stroke-miterlimit="8" fill="none" fill-rule="evenodd"></path><path d="M193.5 2048.5 1105.78 2048.5" stroke="#DAE3F3" stroke-width="4.58333" stroke-miterlimit="8" fill="none" fill-rule="evenodd"></path><path d="M289.5 1353.5 289.5 2097.86" stroke="#DAE3F3" stroke-width="4.58333" stroke-miterlimit="8" fill="none" fill-rule="evenodd"></path><path d="M358.5 1360.5 358.5 2104.86" stroke="#DAE3F3" stroke-width="4.58333" stroke-miterlimit="8" fill="none" fill-rule="evenodd"></path><path d="M427.5 1355.5 427.5 2099.86" stroke="#DAE3F3" stroke-width="4.58333" stroke-miterlimit="8" fill="none" fill-rule="evenodd"></path><path d="M496.5 1364.5 496.5 2108.86" stroke="#DAE3F3" stroke-width="4.58333" stroke-miterlimit="8" fill="none" fill-rule="evenodd"></path><path d="M565.5 1353.5 565.5 2097.86" stroke="#DAE3F3" stroke-width="4.58333" stroke-miterlimit="8" fill="none" fill-rule="evenodd"></path><path d="M634.5 1364.5 634.5 2108.86" stroke="#DAE3F3" stroke-width="4.58333" stroke-miterlimit="8" fill="none" fill-rule="evenodd"></path><path d="M703.5 1358.5 703.501 2102.86" stroke="#DAE3F3" stroke-width="4.58333" stroke-miterlimit="8" fill="none" fill-rule="evenodd"></path><path d="M772.5 1367.5 772.5 2111.86" stroke="#DAE3F3" stroke-width="4.58333" stroke-miterlimit="8" fill="none" fill-rule="evenodd"></path><path d="M841.5 1358.5 841.5 2102.86" stroke="#DAE3F3" stroke-width="4.58333" stroke-miterlimit="8" fill="none" fill-rule="evenodd"></path><path d="M910.5 1355.5 910.5 2099.86" stroke="#DAE3F3" stroke-width="4.58333" stroke-miterlimit="8" fill="none" fill-rule="evenodd"></path><path d="M979.5 1349.5 979.5 2093.86" stroke="#DAE3F3" stroke-width="4.58333" stroke-miterlimit="8" fill="none" fill-rule="evenodd"></path><path d="M0 0 849.174 0.000360892" stroke="#DAE3F3" stroke-width="4.58333" stroke-miterlimit="8" fill="none" fill-rule="evenodd" transform="matrix(1 0 0 -1 256.5 1433.5)"></path><path d="M172.5 1502.5 1105.6 1502.5" stroke="#DAE3F3" stroke-width="4.58333" stroke-miterlimit="8" fill="none" fill-rule="evenodd"></path><path d="M172.5 1570.5 1105.65 1570.5" stroke="#DAE3F3" stroke-width="4.58333" stroke-miterlimit="8" fill="none" fill-rule="evenodd"></path><path d="M172.5 1641.5 1105.65 1641.5" stroke="#DAE3F3" stroke-width="4.58333" stroke-miterlimit="8" fill="none" fill-rule="evenodd"></path><path d="M193.5 1710.5 1105.78 1710.5" stroke="#DAE3F3" stroke-width="4.58333" stroke-miterlimit="8" fill="none" fill-rule="evenodd"></path><path d="M172.5 1778.5 1105.65 1778.5" stroke="#DAE3F3" stroke-width="4.58333" stroke-miterlimit="8" fill="none" fill-rule="evenodd"></path><path d="M193.5 1916.5 1105.78 1916.5" stroke="#DAE3F3" stroke-width="4.58333" stroke-miterlimit="8" fill="none" fill-rule="evenodd"></path><path d="M193.5 1984.5 1105.78 1984.5" stroke="#DAE3F3" stroke-width="4.58333" stroke-miterlimit="8" fill="none" fill-rule="evenodd"></path><path d="M1.14583-6.52847e-07 1.14619 624.247-1.14548 624.247-1.14583 6.52847e-07ZM0.00035567 624.247 9.16702 615.08 0.000360892 633.414-9.16632 615.08Z" transform="matrix(1 0 0 -1 565 2049.41)"></path><text font-family="Times New Roman,Times New Roman_MSFontService,sans-serif" font-style="italic" font-weight="400" font-size="46" transform="matrix(1 0 0 1 1040.46 1826)">x</text><text font-family="Times New Roman,Times New Roman_MSFontService,sans-serif" font-style="italic" font-weight="400" font-size="46" transform="matrix(1 0 0 1 581.854 1432)">y</text><path d="M204 1774.85 1033.54 1774.85 1033.54 1777.15 204 1777.15ZM1033.54 1776 1024.37 1766.83 1042.7 1776 1024.37 1785.17Z"></path><path d="M1042.5 1346.5 1042.5 2090.86" stroke="#DAE3F3" stroke-width="4.58333" stroke-miterlimit="8" fill="none" fill-rule="evenodd"></path><path d="M1105.5 1344.5 1105.5 2088.86" stroke="#DAE3F3" stroke-width="4.58333" stroke-miterlimit="8" fill="none" fill-rule="evenodd"></path><path d="M910.574 1574.49 427.5 1572.5" stroke="#000000" stroke-width="4.58333" stroke-miterlimit="8" stroke-dasharray="18.3333 13.75" fill="none" fill-rule="evenodd"></path><path d="M426.5 1572.5 426.5 2035.25" stroke="#000000" stroke-width="4.58333" stroke-miterlimit="8" stroke-dasharray="18.3333 13.75" fill="none" fill-rule="evenodd"></path><path d="M222.5 1364.5 222.5 2108.86" stroke="#DAE3F3" stroke-width="4.58333" stroke-miterlimit="8" fill="none" fill-rule="evenodd"></path>

<!-- Point N -->
<path d="M419 2041C419 2036.58 422.582 2033 427 2033 431.418 2033 435 2036.58 435 2041 435 2045.42 431.418 2049 427 2049 422.582 2049 419 2045.42 419 2041Z" fill="#C00000" fill-rule="evenodd"></path>
<text font-family="Times New Roman,Times New Roman_MSFontService,sans-serif" font-weight="400" font-size="46" transform="matrix(1 0 0 1 445.378 2046)">N(__,-4)</text>

<!-- Point P -->
<path d="M417 1566.5C417 1561.81 420.582 1558 425 1558 429.418 1558 433 1561.81 433 1566.5 433 1571.19 429.418 1575 425 1575 420.582 1575 417 1571.19 417 1566.5Z" fill="#C00000" fill-rule="evenodd"></path>
<text font-family="Times New Roman,Times New Roman_MSFontService,sans-serif" font-weight="400" font-size="46" transform="matrix(1 0 0 1 435.109 1540)">P(-2,__)</text>

<!-- Point M (changed from P) -->
<path d="M902 1573C902 1568.58 905.806 1565 910.5 1565 915.194 1565 919 1568.58 919 1573 919 1577.42 915.194 1581 910.5 1581 905.806 1581 902 1577.42 902 1573Z" fill="#C00000" fill-rule="evenodd"></path>
<text font-family="Times New Roman,Times New Roman_MSFontService,sans-serif" font-weight="400" font-size="46" transform="matrix(1 0 0 1 909.309 1636)">M(5,__)</text>

</g></svg>