<svg xmlns:xlink="http://www.w3.org/1999/xlink" width="347.04pt" height="347.04pt" viewBox="0 0 347.04 347.04" xmlns="http://www.w3.org/2000/svg" version="1.1">
 <metadata>
  <rdf:rdf xmlns:dc="http://purl.org/dc/elements/1.1/" xmlns:cc="http://creativecommons.org/ns#" xmlns:rdf="http://www.w3.org/1999/02/22-rdf-syntax-ns#">
   <cc:work>
    <dc:type rdf:resource="http://purl.org/dc/dcmitype/StillImage"></dc:type>
    <dc:date>2025-07-03T16:02:00.927155</dc:date>
    <dc:format>image/svg+xml</dc:format>
    <dc:creator>
     <cc:agent>
      <dc:title>Matplotlib v3.6.3, https://matplotlib.org/</dc:title>
     </cc:agent>
    </dc:creator>
   </cc:work>
  </rdf:rdf>
 </metadata>
 <defs>
  
 </defs>
 <g id="figure_1">
  <g id="patch_1">
   <path d="M 0 347.04 
L 347.04 347.04 
L 347.04 -0 
L 0 -0 
z
" style="fill: #ffffff"></path>
  </g>
  <g id="axes_1">
   <g id="patch_2">
    <path d="M 7.2 339.84 
L 339.84 339.84 
L 339.84 7.2 
L 7.2 7.2 
z
" style="fill: #ffffff"></path>
   </g>
   <g id="matplotlib.axis_1"></g>
   <g id="matplotlib.axis_2"></g>
   <g id="line2d_1">
    <path d="M 94.04 -1 
L 323.208 228.168 
L 323.208 228.168 
" clip-path="url(#p6a220f0367)" style="fill: none; stroke: #8b0000; stroke-width: 1.5; stroke-linecap: square"></path>
   </g>
   <g id="line2d_2">
    <path d="M 23.832 228.168 
L 253 -1 
L 253 -1 
" clip-path="url(#p6a220f0367)" style="fill: none; stroke: #8b0000; stroke-width: 1.5; stroke-linecap: square"></path>
   </g>
   <g id="line2d_3">
    <path d="M 23.832 118.872 
L 253 348.04 
L 253 348.04 
" clip-path="url(#p6a220f0367)" style="fill: none; stroke: #8b0000; stroke-width: 1.5; stroke-linecap: square"></path>
   </g>
   <g id="line2d_4">
    <path d="M 94.04 348.04 
L 323.208 118.872 
L 323.208 118.872 
" clip-path="url(#p6a220f0367)" style="fill: none; stroke: #8b0000; stroke-width: 1.5; stroke-linecap: square"></path>
   </g>
   <g id="line2d_5">
    <defs>
     <path id="m4280370557" d="M 0 2 
C 0.530406 2 1.03916 1.789267 1.414214 1.414214 
C 1.789267 1.03916 2 0.530406 2 0 
C 2 -0.530406 1.789267 -1.03916 1.414214 -1.414214 
C 1.03916 -1.789267 0.530406 -2 0 -2 
C -0.530406 -2 -1.03916 -1.789267 -1.414214 -1.414214 
C -1.789267 -1.03916 -2 -0.530406 -2 0 
C -2 0.530406 -1.789267 1.03916 -1.414214 1.414214 
C -1.03916 1.789267 -0.530406 2 0 2 
z
"></path>
    </defs>
    <g clip-path="url(#p6a220f0367)">
     <use xlink:href="#m4280370557" x="173.52" y="78.48"></use>
    </g>
   </g>
   <g id="line2d_6">
    <g clip-path="url(#p6a220f0367)">
     <use xlink:href="#m4280370557" x="173.52" y="268.56"></use>
    </g>
   </g>
   <g id="line2d_7">
    <g clip-path="url(#p6a220f0367)">
     <use xlink:href="#m4280370557" x="268.56" y="173.52"></use>
    </g>
   </g>
   <g id="line2d_8">
    <g clip-path="url(#p6a220f0367)">
     <use xlink:href="#m4280370557" x="78.48" y="173.52"></use>
    </g>
   </g>
   <g id="patch_3">
    <path d="M 9.202357 173.52 
Q 173.520982 173.52 336.721572 173.52 
" style="fill: none; stroke: #000000; stroke-linecap: round"></path>
    <path d="M 332.721572 171.52 
L 336.721572 173.52 
L 332.721572 175.52 
" style="fill: none; stroke: #000000; stroke-linecap: round"></path>
   </g>
   <g id="patch_4">
    <path d="M 173.52 337.837643 
Q 173.52 173.519018 173.52 10.318428 
" style="fill: none; stroke: #000000; stroke-linecap: round"></path>
    <path d="M 171.52 14.318428 
L 173.52 10.318428 
L 175.52 14.318428 
" style="fill: none; stroke: #000000; stroke-linecap: round"></path>
   </g>
   <g id="text_1">
    <text style="fill: #333333; font: 14px 'DejaVu Sans', 'Bitstream Vera Sans', 'Computer Modern Sans Serif', 'Lucida Grande', 'Verdana', 'Geneva', 'Lucid', 'Arial', 'Helvetica', 'Avant Garde', sans-serif; text-anchor: start" x="327.96" y="185.4" transform="rotate(-0 327.96 185.4)">x</text>
   </g>
   <g id="text_2">
    <text style="fill: #333333; font: 14px 'DejaVu Sans', 'Bitstream Vera Sans', 'Computer Modern Sans Serif', 'Lucida Grande', 'Verdana', 'Geneva', 'Lucid', 'Arial', 'Helvetica', 'Avant Garde', sans-serif; text-anchor: start" x="185.4" y="19.08" transform="rotate(-0 185.4 19.08)">y</text>
   </g>
   <g id="text_3">
    <text style="font: 12px 'DejaVu Sans', 'Bitstream Vera Sans', 'Computer Modern Sans Serif', 'Lucida Grande', 'Verdana', 'Geneva', 'Lucid', 'Arial', 'Helvetica', 'Avant Garde', sans-serif; text-anchor: start" x="280.44" y="280.44" transform="rotate(-0 280.44 280.44)">1</text>
   </g>
   <g id="text_4">
    <text style="font: 12px 'DejaVu Sans', 'Bitstream Vera Sans', 'Computer Modern Sans Serif', 'Lucida Grande', 'Verdana', 'Geneva', 'Lucid', 'Arial', 'Helvetica', 'Avant Garde', sans-serif; text-anchor: start" x="42.84" y="280.44" transform="rotate(-0 42.84 280.44)">2</text>
   </g>
   <g id="text_5">
    <text style="font: 12px 'DejaVu Sans', 'Bitstream Vera Sans', 'Computer Modern Sans Serif', 'Lucida Grande', 'Verdana', 'Geneva', 'Lucid', 'Arial', 'Helvetica', 'Avant Garde', sans-serif; text-anchor: start" x="42.84" y="66.6" transform="rotate(-0 42.84 66.6)">3</text>
   </g>
   <g id="text_6">
    <text style="font: 12px 'DejaVu Sans', 'Bitstream Vera Sans', 'Computer Modern Sans Serif', 'Lucida Grande', 'Verdana', 'Geneva', 'Lucid', 'Arial', 'Helvetica', 'Avant Garde', sans-serif; text-anchor: start" x="280.44" y="66.6" transform="rotate(-0 280.44 66.6)">4</text>
   </g>
  </g>
 </g>
 <defs>
  <clipPath id="p6a220f0367">
   <rect x="7.2" y="7.2" width="332.64" height="332.64"></rect>
  </clipPath>
 </defs>
</svg>