<svg width="961" height="867" xmlns="http://www.w3.org/2000/svg" xmlns:xlink="http://www.w3.org/1999/xlink" xml:space="preserve" overflow="hidden"><g transform="translate(-213 -567)"><path d="M0 0 944.969 0.000360892" stroke="#DAE3F3" stroke-width="4.58333" stroke-miterlimit="8" fill="none" fill-rule="evenodd" transform="matrix(1 0 0 -1 225.5 1132.5)"></path><path d="M223.5 1359.5 1170.62 1359.5" stroke="#DAE3F3" stroke-width="4.58333" stroke-miterlimit="8" fill="none" fill-rule="evenodd"></path><path d="M253.5 577.5 253.5 1414.99" stroke="#DAE3F3" stroke-width="4.58333" stroke-miterlimit="8" fill="none" fill-rule="evenodd"></path><path d="M330.5 585.5 330.5 1422.99" stroke="#DAE3F3" stroke-width="4.58333" stroke-miterlimit="8" fill="none" fill-rule="evenodd"></path><path d="M408.5 579.5 408.5 1416.99" stroke="#DAE3F3" stroke-width="4.58333" stroke-miterlimit="8" fill="none" fill-rule="evenodd"></path><path d="M485.5 589.5 485.5 1426.99" stroke="#DAE3F3" stroke-width="4.58333" stroke-miterlimit="8" fill="none" fill-rule="evenodd"></path><path d="M563.5 577.5 563.5 1414.99" stroke="#DAE3F3" stroke-width="4.58333" stroke-miterlimit="8" fill="none" fill-rule="evenodd"></path><path d="M641.5 589.5 641.5 1426.99" stroke="#DAE3F3" stroke-width="4.58333" stroke-miterlimit="8" fill="none" fill-rule="evenodd"></path><path d="M718.5 583.5 718.5 1420.99" stroke="#DAE3F3" stroke-width="4.58333" stroke-miterlimit="8" fill="none" fill-rule="evenodd"></path><path d="M796.5 593.5 796.5 1430.99" stroke="#DAE3F3" stroke-width="4.58333" stroke-miterlimit="8" fill="none" fill-rule="evenodd"></path><path d="M874.5 583.5 874.5 1420.99" stroke="#DAE3F3" stroke-width="4.58333" stroke-miterlimit="8" fill="none" fill-rule="evenodd"></path><path d="M951.5 579.5 951.5 1416.99" stroke="#DAE3F3" stroke-width="4.58333" stroke-miterlimit="8" fill="none" fill-rule="evenodd"></path><path d="M1029.5 573.5 1029.5 1410.99" stroke="#DAE3F3" stroke-width="4.58333" stroke-miterlimit="8" fill="none" fill-rule="evenodd"></path><path d="M0 0 955.187 0.000360892" stroke="#DAE3F3" stroke-width="4.58333" stroke-miterlimit="8" fill="none" fill-rule="evenodd" transform="matrix(1 0 0 -1 215.5 667.5)"></path><path d="M0 0 947.016 0.000360892" stroke="#DAE3F3" stroke-width="4.58333" stroke-miterlimit="8" fill="none" fill-rule="evenodd" transform="matrix(1 0 0 -1 223.5 744.5)"></path><path d="M0 0 957.229 0.000360892" stroke="#DAE3F3" stroke-width="4.58333" stroke-miterlimit="8" fill="none" fill-rule="evenodd" transform="matrix(1 0 0 -1 213.5 822.5)"></path><path d="M0 0 955.186 0.000360892" stroke="#DAE3F3" stroke-width="4.58333" stroke-miterlimit="8" fill="none" fill-rule="evenodd" transform="matrix(1 0 0 -1 215.5 901.501)"></path><path d="M0 0 955.186 0.000360892" stroke="#DAE3F3" stroke-width="4.58333" stroke-miterlimit="8" fill="none" fill-rule="evenodd" transform="matrix(1 0 0 -1 215.5 978.501)"></path><path d="M0 0 944.972 0.000360892" stroke="#DAE3F3" stroke-width="4.58333" stroke-miterlimit="8" fill="none" fill-rule="evenodd" transform="matrix(1 0 0 -1 225.5 1056.5)"></path><path d="M0 0 928.63 0.000360892" stroke="#DAE3F3" stroke-width="4.58333" stroke-miterlimit="8" fill="none" fill-rule="evenodd" transform="matrix(1 0 0 -1 242.5 1210.5)"></path><path d="M0 0 955.186 0.000360892" stroke="#DAE3F3" stroke-width="4.58333" stroke-miterlimit="8" fill="none" fill-rule="evenodd" transform="matrix(1 0 0 -1 215.5 1288.5)"></path><path d="M1.14583-5.8187e-07 1.14619 701.511-1.14548 701.511-1.14583 5.8187e-07ZM0.000356237 701.511 9.16702 692.345 0.000360892 710.678-9.16632 692.345Z" transform="matrix(1 0 0 -1 718 1356.68)"></path><text font-family="Times New Roman,Times New Roman_MSFontService,sans-serif" font-style="italic" font-weight="400" font-size="46" transform="matrix(1 0 0 1 1117.38 1165)">x</text><text font-family="Times New Roman,Times New Roman_MSFontService,sans-serif" font-style="italic" font-weight="400" font-size="46" transform="matrix(1 0 0 1 762.46 641)">y</text><path d="M253 1128.85 1101.83 1128.85 1101.83 1131.15 253 1131.15ZM1101.83 1130 1092.66 1120.83 1110.99 1130 1092.66 1139.17Z"></path><path d="M1100.5 570.5 1100.5 1407.99" stroke="#DAE3F3" stroke-width="4.58333" stroke-miterlimit="8" fill="none" fill-rule="evenodd"></path><path d="M1170.5 567.5 1170.5 1404.99" stroke="#DAE3F3" stroke-width="4.58333" stroke-miterlimit="8" fill="none" fill-rule="evenodd"></path>
<!-- Point E -->
<path d="M400 1128.5C400 1123.25 404.03 1119 409 1119 413.971 1119 418 1123.25 418 1128.5 418 1133.75 413.971 1138 409 1138 404.03 1138 400 1133.75 400 1128.5Z" fill="#C00000" fill-rule="evenodd"></path>
<text font-family="Times New Roman,Times New Roman_MSFontService,sans-serif" font-weight="400" font-size="46" transform="matrix(1 0 0 1 384.762 1200)">E(-4,__)</text>
<!-- Point D -->
<path d="M866 1355.5C866 1350.25 870.029 1346 875 1346 879.971 1346 884 1350.25 884 1355.5 884 1360.75 879.971 1365 875 1365 870.029 1365 866 1360.75 866 1355.5Z" fill="#C00000" fill-rule="evenodd"></path>
<text font-family="Times New Roman,Times New Roman_MSFontService,sans-serif" font-weight="400" font-size="46" transform="matrix(1 0 0 1 839.048 1299)">D(___,-3)</text>
<!-- Point C moved one square to the right -->
<path d="M399 745.5C399 740.253 403.253 736 408.5 736 413.747 736 418 740.253 418 745.5 418 750.747 413.747 755 408.5 755 403.253 755 399 750.747 399 745.5Z" fill="#C00000" fill-rule="evenodd"></path>
<text font-family="Times New Roman,Times New Roman_MSFontService,sans-serif" font-weight="400" font-size="46" transform="matrix(1 0 0 1 417.626 746)">C(-4,___)</text>
<!-- Point B -->
<path d="M788 820C788 815.029 792.029 811 797 811 801.971 811 806 815.029 806 820 806 824.971 801.971 829 797 829 792.029 829 788 824.971 788 820Z" fill="#C00000" fill-rule="evenodd"></path>
<text font-family="Times New Roman,Times New Roman_MSFontService,sans-serif" font-weight="400" font-size="46" transform="matrix(1 0 0 1 808.169 816)">B(1,___)</text>
<!-- Point A -->
<path d="M637 969C637 964.03 641.253 960 646.5 960 651.747 960 656 964.03 656 969 656 973.971 651.747 978 646.5 978 641.253 978 637 973.971 637 969Z" fill="#C00000" fill-rule="evenodd"></path>
<text font-family="Times New Roman,Times New Roman_MSFontService,sans-serif" font-weight="400" font-size="46" transform="matrix(1 0 0 1 642.265 1003)">A(-1,2)</text></g></svg>